<?xml version="1.0" standalone="no"?>
<svg xmlns:xlink="http://www.w3.org/1999/xlink" id="wave" style="transform:rotate(0deg); transition: 0.3s" viewBox="0 0 1440 490" version="1.1" xmlns="http://www.w3.org/2000/svg"><defs><linearGradient id="sw-gradient-0" x1="0" x2="0" y1="1" y2="0"><stop stop-color="rgba(0, 191, 255, 1)" offset="0%"/><stop stop-color="rgba(0, 191, 255, 1)" offset="100%"/></linearGradient></defs><path style="transform:translate(0, 0px); opacity:1" fill="url(#sw-gradient-0)" d="M0,441L120,441C240,441,480,441,720,408.3C960,376,1200,310,1440,302.2C1680,294,1920,343,2160,343C2400,343,2640,294,2880,228.7C3120,163,3360,82,3600,114.3C3840,147,4080,294,4320,294C4560,294,4800,147,5040,122.5C5280,98,5520,196,5760,196C6000,196,6240,98,6480,81.7C6720,65,6960,131,7200,155.2C7440,180,7680,163,7920,147C8160,131,8400,114,8640,163.3C8880,212,9120,327,9360,343C9600,359,9840,278,10080,212.3C10320,147,10560,98,10800,106.2C11040,114,11280,180,11520,236.8C11760,294,12000,343,12240,375.7C12480,408,12720,425,12960,383.8C13200,343,13440,245,13680,171.5C13920,98,14160,49,14400,73.5C14640,98,14880,196,15120,253.2C15360,310,15600,327,15840,277.7C16080,229,16320,114,16560,130.7C16800,147,17040,294,17160,367.5L17280,441L17280,490L17160,490C17040,490,16800,490,16560,490C16320,490,16080,490,15840,490C15600,490,15360,490,15120,490C14880,490,14640,490,14400,490C14160,490,13920,490,13680,490C13440,490,13200,490,12960,490C12720,490,12480,490,12240,490C12000,490,11760,490,11520,490C11280,490,11040,490,10800,490C10560,490,10320,490,10080,490C9840,490,9600,490,9360,490C9120,490,8880,490,8640,490C8400,490,8160,490,7920,490C7680,490,7440,490,7200,490C6960,490,6720,490,6480,490C6240,490,6000,490,5760,490C5520,490,5280,490,5040,490C4800,490,4560,490,4320,490C4080,490,3840,490,3600,490C3360,490,3120,490,2880,490C2640,490,2400,490,2160,490C1920,490,1680,490,1440,490C1200,490,960,490,720,490C480,490,240,490,120,490L0,490Z"/><defs><linearGradient id="sw-gradient-1" x1="0" x2="0" y1="1" y2="0"><stop stop-color="rgba(0, 191, 255, 1)" offset="0%"/><stop stop-color="rgba(0, 191, 255, 1)" offset="100%"/></linearGradient></defs><path style="transform:translate(0, 50px); opacity:0.9" fill="url(#sw-gradient-1)" d="M0,196L120,163.3C240,131,480,65,720,81.7C960,98,1200,196,1440,228.7C1680,261,1920,229,2160,187.8C2400,147,2640,98,2880,114.3C3120,131,3360,212,3600,212.3C3840,212,4080,131,4320,98C4560,65,4800,82,5040,138.8C5280,196,5520,294,5760,302.2C6000,310,6240,229,6480,196C6720,163,6960,180,7200,155.2C7440,131,7680,65,7920,32.7C8160,0,8400,0,8640,8.2C8880,16,9120,33,9360,106.2C9600,180,9840,310,10080,318.5C10320,327,10560,212,10800,179.7C11040,147,11280,196,11520,204.2C11760,212,12000,180,12240,187.8C12480,196,12720,245,12960,220.5C13200,196,13440,98,13680,122.5C13920,147,14160,294,14400,310.3C14640,327,14880,212,15120,179.7C15360,147,15600,196,15840,228.7C16080,261,16320,278,16560,294C16800,310,17040,327,17160,334.8L17280,343L17280,490L17160,490C17040,490,16800,490,16560,490C16320,490,16080,490,15840,490C15600,490,15360,490,15120,490C14880,490,14640,490,14400,490C14160,490,13920,490,13680,490C13440,490,13200,490,12960,490C12720,490,12480,490,12240,490C12000,490,11760,490,11520,490C11280,490,11040,490,10800,490C10560,490,10320,490,10080,490C9840,490,9600,490,9360,490C9120,490,8880,490,8640,490C8400,490,8160,490,7920,490C7680,490,7440,490,7200,490C6960,490,6720,490,6480,490C6240,490,6000,490,5760,490C5520,490,5280,490,5040,490C4800,490,4560,490,4320,490C4080,490,3840,490,3600,490C3360,490,3120,490,2880,490C2640,490,2400,490,2160,490C1920,490,1680,490,1440,490C1200,490,960,490,720,490C480,490,240,490,120,490L0,490Z"/><defs><linearGradient id="sw-gradient-2" x1="0" x2="0" y1="1" y2="0"><stop stop-color="rgba(0, 191, 255, 1)" offset="0%"/><stop stop-color="rgba(0, 191, 255, 1)" offset="100%"/></linearGradient></defs><path style="transform:translate(0, 100px); opacity:0.8" fill="url(#sw-gradient-2)" d="M0,0L120,57.2C240,114,480,229,720,245C960,261,1200,180,1440,179.7C1680,180,1920,261,2160,261.3C2400,261,2640,180,2880,122.5C3120,65,3360,33,3600,16.3C3840,0,4080,0,4320,40.8C4560,82,4800,163,5040,179.7C5280,196,5520,147,5760,147C6000,147,6240,196,6480,179.7C6720,163,6960,82,7200,40.8C7440,0,7680,0,7920,40.8C8160,82,8400,163,8640,236.8C8880,310,9120,376,9360,367.5C9600,359,9840,278,10080,236.8C10320,196,10560,196,10800,212.3C11040,229,11280,261,11520,277.7C11760,294,12000,294,12240,245C12480,196,12720,98,12960,89.8C13200,82,13440,163,13680,171.5C13920,180,14160,114,14400,98C14640,82,14880,114,15120,122.5C15360,131,15600,114,15840,114.3C16080,114,16320,131,16560,114.3C16800,98,17040,49,17160,24.5L17280,0L17280,490L17160,490C17040,490,16800,490,16560,490C16320,490,16080,490,15840,490C15600,490,15360,490,15120,490C14880,490,14640,490,14400,490C14160,490,13920,490,13680,490C13440,490,13200,490,12960,490C12720,490,12480,490,12240,490C12000,490,11760,490,11520,490C11280,490,11040,490,10800,490C10560,490,10320,490,10080,490C9840,490,9600,490,9360,490C9120,490,8880,490,8640,490C8400,490,8160,490,7920,490C7680,490,7440,490,7200,490C6960,490,6720,490,6480,490C6240,490,6000,490,5760,490C5520,490,5280,490,5040,490C4800,490,4560,490,4320,490C4080,490,3840,490,3600,490C3360,490,3120,490,2880,490C2640,490,2400,490,2160,490C1920,490,1680,490,1440,490C1200,490,960,490,720,490C480,490,240,490,120,490L0,490Z"/><defs><linearGradient id="sw-gradient-3" x1="0" x2="0" y1="1" y2="0"><stop stop-color="rgba(0, 191, 255, 1)" offset="0%"/><stop stop-color="rgba(0, 191, 255, 0.92)" offset="100%"/></linearGradient></defs><path style="transform:translate(0, 150px); opacity:0.7" fill="url(#sw-gradient-3)" d="M0,441L120,392C240,343,480,245,720,236.8C960,229,1200,310,1440,302.2C1680,294,1920,196,2160,179.7C2400,163,2640,229,2880,269.5C3120,310,3360,327,3600,277.7C3840,229,4080,114,4320,98C4560,82,4800,163,5040,220.5C5280,278,5520,310,5760,326.7C6000,343,6240,343,6480,326.7C6720,310,6960,278,7200,294C7440,310,7680,376,7920,383.8C8160,392,8400,343,8640,326.7C8880,310,9120,327,9360,351.2C9600,376,9840,408,10080,367.5C10320,327,10560,212,10800,147C11040,82,11280,65,11520,57.2C11760,49,12000,49,12240,98C12480,147,12720,245,12960,261.3C13200,278,13440,212,13680,204.2C13920,196,14160,245,14400,236.8C14640,229,14880,163,15120,155.2C15360,147,15600,196,15840,245C16080,294,16320,343,16560,343C16800,343,17040,294,17160,269.5L17280,245L17280,490L17160,490C17040,490,16800,490,16560,490C16320,490,16080,490,15840,490C15600,490,15360,490,15120,490C14880,490,14640,490,14400,490C14160,490,13920,490,13680,490C13440,490,13200,490,12960,490C12720,490,12480,490,12240,490C12000,490,11760,490,11520,490C11280,490,11040,490,10800,490C10560,490,10320,490,10080,490C9840,490,9600,490,9360,490C9120,490,8880,490,8640,490C8400,490,8160,490,7920,490C7680,490,7440,490,7200,490C6960,490,6720,490,6480,490C6240,490,6000,490,5760,490C5520,490,5280,490,5040,490C4800,490,4560,490,4320,490C4080,490,3840,490,3600,490C3360,490,3120,490,2880,490C2640,490,2400,490,2160,490C1920,490,1680,490,1440,490C1200,490,960,490,720,490C480,490,240,490,120,490L0,490Z"/></svg>